<svg xmlns="http://www.w3.org/2000/svg" fill="currentColor" viewBox="0 0 32 32"><path d="M4.9 2.3c-1.3 0-2.3 1-2.3 2.3v20.8c0 1.2 1 2.3 2.3 2.3h11.8a27.6 27.6 0 0 1-.1-3.5V24l-.6-3-.5-1.3a.8.8 0 0 1-.1-.5v-.5l.4-1.4v.1h.2v-.6q.1-.8.4-1.5h.2v-.5c1-4.7 3-8.9 6-12.3l.2-.2zM28 1.7c-1.3-1.2-2.9-.7-4.4.6L23 3a27 27 0 0 0-5.8 11.8v.1c.2.6.5 1.2.6 2l.3.9-.2-.4v-.2l-1-1.7-.4 1.5c.4.8.8 1.8 1 2.9s0 0-.2-.5l-1-1.9a4.3 4.3 0 0 0-.2 2l.5 1.4.6 3v.3a27 27 0 0 0 0 3.6v-.1c.1 1.2.4 2.3.7 3.4V31l.2-.1a14.5 14.5 0 0 1-.5-5c.2-3.7 1-7.3 2.1-10.6v.3c1.6-5 4.3-9.1 7.8-12.5a43.7 43.7 0 0 0-6.8 12.3c-1 2.4-1.8 5.3-2.4 8.2v.3c.6-1.6 1.9-2.9 3.4-3.6s1.4-1.6 3-4l-3.2.9h.2l-1 .3c1.3-.7 2.8-1.5 4.4-2l.1-.1c3-4.5 6-11 2.9-13.7z"/></svg>