<svg xmlns="http://www.w3.org/2000/svg" data-logo="logo" viewBox="0 0 183 43"><g style="opacity:1"><path fill="#9417CF" d="M20.5 11.3a10 10 0 0 1-10 10H.5v-10a10 10 0 1 1 20 0Z"/><path fill="#CF1794" d="M20.5 31.3a10 10 0 0 1 10-10h10v10a10 10 0 1 1-20 0Z"/><path fill="#4817CF" d="M.5 31.3a10 10 0 0 0 10 10h10v-10a10 10 0 1 0-20 0Z"/><path fill="#17CF79" d="M40.5 11.3a10 10 0 0 0-10-10h-10v10a10 10 0 0 0 20 0Z"/></g><path d="M17.8 31.4q-4.7 0-7.6-2.1-2.8-2.1-3-5.8h5q.3 1.9 1.8 2.9 1.4 1 4 1 2.3 0 3.5-.8 1.1-.7 1.1-2.2 0-1.1-.7-1.8t-2.4-1l-4.9-1q-3.3-.7-4.9-2.3-1.6-1.7-1.6-4.3 0-3.2 2.5-5.1Q13 7 17.4 7t7 2q2.6 2 3 5.4h-5.1Q21.4 11 17 11q-2 0-3 .7-1.2.7-1.2 2 0 2 2.9 2.6l5 1q3.5.7 5.1 2.4 1.6 1.6 1.6 4.4 0 3.5-2.5 5.4-2.6 2-7.2 2ZM35.6 38h-4.8V18.3h-2.4v-4.8h4.9v2.9h1.2q1-1.6 2.5-2.4 1.5-.8 3.8-.8 2.7 0 4.6 1 1.8 1.2 2.8 3.3 1 2 1 4.8 0 2.7-1 4.8-1 2-2.7 3.1-1.8 1.2-4.3 1.2-2 0-3.3-.8-1.4-.7-2.2-2h-.1V38Zm4.3-10.9q2.2 0 3.3-1.3 1.1-1.3 1.1-3.6 0-2.2-1.1-3.5-1.1-1.3-3.3-1.3-2 0-3.1 1-1.2 1.1-1.2 3V23q0 2 1.2 3 1.1 1.1 3 1.1Zm18.5 4.2q-3.7 0-5.6-1.9-2-2-2-5.3V13.5h4.9v9.7q0 2 1 2.9 1 .9 2.9.9 2 0 3-1 1.2-1 1.2-3v-9.5h4.8v12.7H71V31h-4.9v-2.9H65q-1 1.6-2.6 2.4-1.5.8-4 .8Zm25.1-.3h-5.3q-1.9 0-2.9-1-1-.9-1-2.9v-9.8h-3v-3.8h3V8.2h4.8v5.3h4v3.8h-4v10h4.4V31Zm9 .3q-3.6 0-5.6-1.9-2-2-2-5.3V13.5h4.9v9.7q0 2 1 2.9 1 .9 2.9.9 2 0 3.1-1t1.1-3v-9.5h4.8v12.7h2.4V31h-4.9v-2.9H99q-1 1.6-2.5 2.4-1.5.8-4 .8Zm20-.3h-4.8V18.3h-2.4v-4.8h5v3.4h1.2q.7-1.8 2.2-2.7 1.5-.9 3.4-.9h1.5v4.2h-1.7q-2.3 0-3.4 1.3-1 1.3-1 3.4V31Zm22 0h-15.4v-3l9.1-10.6h-8.6v-3.9h14.7v3l-9 10.6h9.2V31Z" style="opacity:1" transform="translate(47 2.5)"/></svg>