<svg width="24" height="24" viewBox="0 0 24 24" fill="none" xmlns="http://www.w3.org/2000/svg">
<rect x="0.5" y="0.5" width="23" height="23" rx="7.5" stroke="white" stroke-opacity="0.8"/>
<path d="M13.2794 14.8415L15.0484 16.5492C15.4108 16.8983 15.4108 17.4653 15.0484 17.8147C14.6864 18.1641 14.0996 18.1641 13.738 17.8147L11.9988 16.1366L10.261 17.8147C10.0798 17.9892 9.84241 18.0766 9.60498 18.0766C9.36793 18.0766 9.13089 17.9892 8.94969 17.8147C8.58768 17.4653 8.58768 16.8987 8.94931 16.5492L10.7185 14.8415C10.0743 14.6999 9.45313 14.4535 8.88096 14.107C8.44795 13.8434 8.31788 13.2913 8.59071 12.8729C8.86279 12.4541 9.43496 12.3279 9.86873 12.5915C11.1642 13.3781 12.833 13.3783 14.1292 12.5915C14.5629 12.3279 15.1349 12.4541 15.4076 12.8729C15.6804 13.2909 15.5499 13.8434 15.1169 14.107C14.5448 14.4539 13.9235 14.6999 13.2794 14.8415Z" fill="white" fill-opacity="0.8"/>
<path fill-rule="evenodd" clip-rule="evenodd" d="M8.82678 9.29464C8.82678 10.9786 10.246 12.3484 11.9912 12.3484C13.7366 12.3484 15.1555 10.9786 15.1555 9.29464C15.1555 7.61011 13.7366 6.23993 11.9912 6.23993C10.246 6.23993 8.82678 7.61011 8.82678 9.29464ZM13.3013 9.29432C13.3013 8.59689 12.7136 8.02978 11.9911 8.02978C11.2692 8.02978 10.6809 8.59689 10.6809 9.29432C10.6809 9.9912 11.2692 10.5587 11.9911 10.5587C12.7136 10.5587 13.3013 9.9912 13.3013 9.29432Z" fill="white" fill-opacity="0.8"/>
</svg>
