<svg width="24" height="24" viewBox="0 0 24 24" fill="none" xmlns="http://www.w3.org/2000/svg">
<rect x="0.5" y="0.5" width="23" height="23" rx="7.5" stroke="white" stroke-opacity="0.8"/>
<path d="M5.73374 11.9059C6.85597 11.2877 8.10869 10.7718 9.27917 10.2532C11.2928 9.40386 13.3145 8.56922 15.3566 7.79218C15.7539 7.65978 16.4678 7.5303 16.5378 8.1191C16.4995 8.95254 16.3418 9.7811 16.2337 10.6097C15.9591 12.4317 15.6419 14.2476 15.3324 16.0637C15.2259 16.6686 14.468 16.9817 13.9832 16.5946C12.8179 15.8075 11.6436 15.0281 10.4932 14.2227C10.1164 13.8398 10.4658 13.2899 10.8024 13.0165C11.7622 12.0706 12.78 11.267 13.6896 10.2723C13.935 9.67978 13.21 10.1791 12.9709 10.3321C11.657 11.2376 10.3752 12.1983 8.98993 12.9941C8.28233 13.3836 7.45761 13.0507 6.75033 12.8333C6.11616 12.5708 5.18687 12.3063 5.73367 11.9059L5.73374 11.9059Z" fill="white" fill-opacity="0.8"/>
</svg>
