<svg width="24" height="25" viewBox="0 0 24 25" fill="none" xmlns="http://www.w3.org/2000/svg">
<path d="M4 22.75C4 18.3317 7.58172 14.75 12 14.75C16.4183 14.75 20 18.3317 20 22.75H18C18 19.4363 15.3137 16.75 12 16.75C8.68629 16.75 6 19.4363 6 22.75H4ZM12 13.75C8.685 13.75 6 11.065 6 7.75C6 4.435 8.685 1.75 12 1.75C15.315 1.75 18 4.435 18 7.75C18 11.065 15.315 13.75 12 13.75ZM12 11.75C14.21 11.75 16 9.96 16 7.75C16 5.54 14.21 3.75 12 3.75C9.79 3.75 8 5.54 8 7.75C8 9.96 9.79 11.75 12 11.75Z" fill="currentColor"/>
</svg>
