<svg width="24" height="24" viewBox="0 0 24 24" fill="none" xmlns="http://www.w3.org/2000/svg">
<rect x="0.5" y="0.5" width="23" height="23" rx="7.5" stroke="white" stroke-opacity="0.8"/>
<path fill-rule="evenodd" clip-rule="evenodd" d="M17.6583 9.58645C17.7508 9.3234 17.6583 9.13208 17.2486 9.13208H15.8872C15.5435 9.13208 15.3849 9.29947 15.2924 9.47886C15.2924 9.47886 14.5919 11.0094 13.6138 12.0018C13.2966 12.2888 13.1512 12.3845 12.9794 12.3845C12.8869 12.3845 12.7679 12.2888 12.7679 12.0257V9.57449C12.7679 9.26361 12.6622 9.12012 12.3714 9.12012H10.2302C10.0187 9.12012 9.88657 9.26361 9.88657 9.4071C9.88657 9.70604 10.3756 9.77777 10.4285 10.6148V12.4323C10.4285 12.8269 10.3492 12.8986 10.1773 12.8986C9.71473 12.8986 8.59127 11.3561 7.91719 9.59842C7.78499 9.25164 7.65284 9.12012 7.3092 9.12012H5.93458C5.53807 9.12012 5.47198 9.28754 5.47198 9.46689C5.47198 9.78974 5.93458 11.4159 7.62638 13.5682C8.74988 15.039 10.3492 15.8282 11.7898 15.8282C12.6622 15.8282 12.7679 15.6488 12.7679 15.3499V14.2379C12.7679 13.8791 12.8472 13.8194 13.1248 13.8194C13.323 13.8194 13.6799 13.915 14.4861 14.6205C15.4113 15.4575 15.57 15.8401 16.0854 15.8401H17.4468C17.8433 15.8401 18.0284 15.6608 17.9227 15.314C17.8037 14.9672 17.3543 14.465 16.7727 13.8672C16.4555 13.5324 15.9797 13.1617 15.8343 12.9823C15.6361 12.7432 15.6889 12.6475 15.8343 12.4323C15.8211 12.4323 17.4865 10.3039 17.6583 9.58645Z" fill="white" fill-opacity="0.8"/>
</svg>
