<svg width="24" height="24" viewBox="0 0 24 24" fill="none" xmlns="http://www.w3.org/2000/svg">
<rect x="0.5" y="0.5" width="23" height="23" rx="7.5" stroke="white" stroke-opacity="0.8"/>
<path fill-rule="evenodd" clip-rule="evenodd" d="M16.0006 8.69971C16.4413 8.82062 16.7883 9.17687 16.906 9.62927C17.12 10.4492 17.12 12.16 17.12 12.16C17.12 12.16 17.12 13.8707 16.906 14.6907C16.7883 15.1431 16.4413 15.4993 16.0006 15.6203C15.2022 15.84 12 15.84 12 15.84C12 15.84 8.79785 15.84 7.99931 15.6203C7.5587 15.4993 7.2117 15.1431 7.09394 14.6907C6.88 13.8707 6.88 12.16 6.88 12.16C6.88 12.16 6.88 10.4492 7.09394 9.62927C7.2117 9.17687 7.5587 8.82062 7.99931 8.69971C8.79785 8.47998 12 8.47998 12 8.47998C12 8.47998 15.2022 8.47998 16.0006 8.69971ZM11.04 10.7201V13.9201L13.6 12.3202L11.04 10.7201Z" fill="white" fill-opacity="0.8"/>
</svg>
