<svg xmlns="http://www.w3.org/2000/svg" data-logo="logo" viewBox="0 0 41 41"><path fill="#9417CF" d="M20.527 10.3c0 5.523-4.477 10-10 10h-10v-10c0-5.523 4.477-10 10-10s10 4.477 10 10Z"/><path fill="#CF1794" d="M20.527 30.3c0-5.523 4.477-10 10-10h10v10c0 5.523-4.477 10-10 10s-10-4.477-10-10Z"/><path fill="#4817CF" d="M.527 30.3c0 5.523 4.477 10 10 10h10v-10c0-5.523-4.477-10-10-10s-10 4.477-10 10Z"/><path fill="#17CF79" d="M40.527 10.3c0-5.523-4.477-10-10-10h-10v10c0 5.523 4.477 10 10 10s10-4.477 10-10Z"/></svg>