<svg xmlns="http://www.w3.org/2000/svg" data-logo="logo" viewBox="0 0 183 43"><path fill="#9417CF" d="M20.527 11.3c0 5.523-4.477 10-10 10h-10v-10c0-5.523 4.477-10 10-10s10 4.477 10 10Z"/><path fill="#CF1794" d="M20.527 31.3c0-5.523 4.477-10 10-10h10v10c0 5.523-4.477 10-10 10s-10-4.477-10-10Z"/><path fill="#4817CF" d="M.527 31.3c0 5.523 4.477 10 10 10h10v-10c0-5.523-4.477-10-10-10s-10 4.477-10 10Z"/><path fill="#17CF79" d="M40.527 11.3c0-5.523-4.477-10-10-10h-10v10c0 5.523 4.477 10 10 10s10-4.477 10-10Z"/><path fill="#fff" d="M64.81 33.85q-4.75 0-7.58-2.09-2.83-2.08-3.09-5.78h5.07q.27 1.92 1.74 2.9 1.47.97 4.07.97 2.3 0 3.47-.74 1.16-.74 1.16-2.2 0-1.14-.74-1.81-.74-.67-2.41-1.02l-4.87-.99q-3.29-.7-4.93-2.32-1.63-1.62-1.63-4.22 0-3.29 2.49-5.16 2.5-1.87 6.79-1.87 4.34 0 7 1.96 2.65 1.95 2.97 5.45h-5.07q-.85-3.55-5.17-3.55-1.95 0-3.06.69-1.11.7-1.11 2.02 0 2.01 2.89 2.59l5.08 1.05q3.44.7 5.03 2.35 1.59 1.65 1.59 4.45 0 3.47-2.53 5.4-2.52 1.92-7.16 1.92ZM82.6 40.5h-4.84V20.78h-2.39V16h4.9v2.86h1.23q.93-1.52 2.49-2.36 1.56-.85 3.78-.85 2.71 0 4.58 1.14 1.86 1.13 2.82 3.18.97 2.04.97 4.78t-.94 4.8q-.93 2.05-2.71 3.18-1.78 1.12-4.32 1.12-1.92 0-3.29-.71-1.37-.72-2.16-2.03h-.12v9.39Zm4.26-10.85q2.22 0 3.33-1.31 1.11-1.32 1.11-3.59 0-2.27-1.11-3.59-1.11-1.31-3.33-1.31-1.95 0-3.1 1.09-1.16 1.1-1.16 3.02v1.58q0 1.92 1.16 3.02 1.15 1.09 3.1 1.09Zm18.52 4.17q-3.64 0-5.6-1.92-1.95-1.93-1.95-5.25V16h4.84v9.71q0 1.9.98 2.85.98.94 2.93.94 2.01 0 3.11-1.02 1.09-1.02 1.09-2.91V16h4.84v12.72h2.39v4.78h-4.9v-2.86h-1.22q-1.05 1.55-2.55 2.36-1.51.82-3.96.82Zm25.15-.32h-5.31q-1.87 0-2.91-.95-1.03-.95-1.03-2.9v-9.86h-3V16h3.06v-5.25h4.72V16h4.06v3.79h-4v9.92h4.41v3.79Zm8.98.32q-3.65 0-5.6-1.92-1.96-1.93-1.96-5.25V16h4.85v9.71q0 1.9.97 2.85.98.94 2.93.94 2.02 0 3.11-1.02 1.09-1.02 1.09-2.91V16h4.85v12.72h2.39v4.78h-4.9v-2.86h-1.23q-1.05 1.55-2.55 2.36-1.5.82-3.95.82Zm19.98-.32h-4.76V20.78h-2.39V16h4.9v3.44h1.23q.7-1.84 2.21-2.74 1.52-.9 3.42-.9h1.48V20h-1.69q-2.27 0-3.34 1.28-1.06 1.28-1.06 3.38v8.84Zm22.02 0h-15.4v-2.92l9.1-10.73h-8.58V16h14.7v2.92l-9.1 10.73h9.28v3.85Z"/></svg>