<svg xmlns="http://www.w3.org/2000/svg" data-logo="logo" viewBox="0 0 183 43"><path fill="#9417CF" d="M20.5 11.3a10 10 0 0 1-10 10H.5v-10a10 10 0 1 1 20 0Z"/><path fill="#CF1794" d="M20.5 31.3a10 10 0 0 1 10-10h10v10a10 10 0 1 1-20 0Z"/><path fill="#4817CF" d="M.5 31.3a10 10 0 0 0 10 10h10v-10a10 10 0 1 0-20 0Z"/><path fill="#17CF79" d="M40.5 11.3a10 10 0 0 0-10-10h-10v10a10 10 0 1 0 20 0Z"/><path fill="#fff" d="M64.8 33.9q-4.7 0-7.6-2.1-2.8-2.1-3-5.8h5q.3 1.9 1.7 2.9 1.5 1 4.1 1 2.3 0 3.5-.8 1.2-.7 1.2-2.2 0-1.1-.8-1.8-.7-.7-2.4-1l-4.9-1q-3.3-.7-4.9-2.3-1.6-1.6-1.6-4.2 0-3.3 2.5-5.2 2.5-1.9 6.8-1.9t7 2q2.6 2 3 5.4h-5.1q-.9-3.5-5.2-3.5-2 0-3 .7-1.2.7-1.2 2 0 2 2.9 2.6l5 1q3.5.7 5.1 2.4 1.6 1.6 1.6 4.4 0 3.5-2.5 5.4-2.5 2-7.2 2Zm17.8 6.6h-4.8V20.8h-2.4V16h4.9v2.9h1.2q1-1.6 2.5-2.4 1.5-.8 3.8-.8 2.7 0 4.5 1 2 1.2 2.9 3.3 1 2 1 4.7t-1 4.9q-1 2-2.7 3.1-1.8 1.2-4.3 1.2-2 0-3.3-.8-1.4-.7-2.2-2h-.1v9.4Zm4.3-10.8q2.2 0 3.3-1.4 1.1-1.3 1.1-3.6 0-2.2-1.1-3.5-1.1-1.3-3.3-1.3-2 0-3.1 1-1.2 1.1-1.2 3v1.6q0 2 1.2 3 1.1 1.1 3 1.1Zm18.5 4.1q-3.7 0-5.6-1.9-2-2-2-5.3V16h4.9v9.7q0 2 1 2.9 1 .9 2.9.9 2 0 3-1 1.2-1 1.2-3V16h4.8v12.7h2.4v4.8h-4.9v-2.9H112q-1 1.6-2.6 2.4-1.5.8-4 .8Zm25.1-.3h-5.3q-1.9 0-2.9-1-1-.9-1-2.9v-9.8h-3V16h3v-5.3h4.8V16h4v3.8h-4v10h4.4v3.7Zm9 .3q-3.6 0-5.6-1.9-2-2-2-5.3V16h4.9v9.7q0 2 1 2.9 1 .9 2.9.9 2 0 3.1-1t1.1-3V16h4.8v12.7h2.4v4.8h-4.9v-2.9H146q-1 1.6-2.5 2.4-1.5.8-4 .8Zm20-.3h-4.8V20.8h-2.4V16h5v3.4h1.2q.7-1.8 2.2-2.7 1.5-.9 3.4-.9h1.5V20h-1.7q-2.3 0-3.4 1.3-1 1.3-1 3.4v8.8Zm22 0h-15.4v-3l9.1-10.7h-8.6V16h14.7v3l-9 10.7h9.2v3.8Z"/></svg>